# xmcd CD database file
#
# Track frame offsets:
#	183
#	23295
#	47350
#	76425
#	103668
#	135183
#	161293
#	179490
#	211598
#	235875
#	261428
#
# Disc length: 3822 seconds
#
# Revision: 0
# Processed by: cddbd v1.5.2PL0 Copyright (c) Steve Scherf et al.
# Submitted via: CDex 2.07
#
DISCID=7b0eec0b
DTITLE=Sixun - Nomads' Land
DYEAR=1993
DGENRE=Jazz
TTITLE0=Malagasy
TTITLE1=Ali Gogo
TTITLE2=Parakali
TTITLE3=Djou Djou
TTITLE4=Kinaree
TTITLE5=James Machine
TTITLE6=Grand Fabrice
TTITLE7=Planete Lee
TTITLE8=The Night And The Mosquitoes
TTITLE9=Tooklao
TTITLE10=Sanza Univers
EXTD=YEAR: 1993
EXTT0=
EXTT1=
EXTT2=
EXTT3=
EXTT4=
EXTT5=
EXTT6=
EXTT7=
EXTT8=
EXTT9=
EXTT10=
PLAYORDER=
